#!OML:ASF F:\VICON\USERDATA\INSTALL\rory3\rory3.ASF
:FULLY-SPECIFIED
:DEGREES
479
root 5.04796 17.0052 2.05363 7.72597 -12.2749 -7.78064
lowerback 20.9033 -0.362431 3.43324
upperback 5.45109 0.302178 1.5865
thorax -5.73876 0.0950414 -0.324882
lowerneck -15.8764 -0.689396 -1.25123
upperneck 39.4479 -0.232505 -1.4718
head 17.0304 -0.565366 -0.503987
rclavicle -6.22196e-014 1.47101e-014
rhumerus -39.8543 -9.08355 -17.4119
rradius 34.8875
rwrist 0.341938
rhand -15.0013 -44.9611
rfingers 7.12502
rthumb 11.1635 -74.6441
lclavicle -6.22196e-014 1.47101e-014
lhumerus -38.993 10.2579 10.1235
lradius 28.1156
lwrist 16.301
lhand -22.2081 -33.6907
lfingers 7.12502
lthumb 4.20786 -3.7525
rfemur -101.777 0.201332 27.6674
rtibia 96.8975
rfoot 48.6452 0.693037
rtoes -3.54604
lfemur -28.3417 3.12828 -22.3124
ltibia 41.3416
lfoot -17.556 10.5397
ltoes 14.0903
480
root 5.04778 17 2.04973 7.80915 -12.3523 -7.78932
lowerback 20.9732 -0.344696 3.44627
upperback 5.38766 0.334528 1.59936
thorax -5.84294 0.108739 -0.326351
lowerneck -16.0451 -0.677932 -1.22797
upperneck 39.5914 -0.20496 -1.50698
head 17.153 -0.556936 -0.522389
rclavicle 2.70347e-014 -2.0276e-014
rhumerus -39.7611 -8.89941 -17.5415
rradius 35.0205
rwrist 0.259203
rhand -14.6417 -45.1685
rfingers 7.12502
rthumb 11.5104 -74.8325
lclavicle 2.70347e-014 -2.0276e-014
lhumerus -39.125 9.98377 10.2786
lradius 28.2418
lwrist 16.3293
lhand -22.1912 -34.6396
lfingers 7.12502
lthumb 4.22416 -4.70178
rfemur -101.897 0.327041 27.6221
rtibia 96.8843
rfoot 48.5467 0.690111
rtoes -4.57631
lfemur -28.4975 3.00427 -22.2955
ltibia 41.4042
lfoot -17.4905 10.7045
ltoes 14.4721
481
root 5.04989 16.9982 2.05077 7.83438 -12.5582 -7.80757
lowerback 21.0541 -0.267164 3.48312
upperback 5.32118 0.450647 1.62479
thorax -5.95353 0.16245 -0.349278
lowerneck -16.0105 -0.684931 -1.3081
upperneck 39.5847 -0.178314 -1.52799
head 17.1412 -0.560553 -0.511984
rclavicle -2.06736e-014 3.06128e-014
rhumerus -39.7358 -8.50666 -17.6282
rradius 35.1511
rwrist 0.0640518
rhand -14.5098 -45.3665
rfingers 7.12502
rthumb 11.6376 -75.0233
lclavicle -2.06736e-014 3.06128e-014
lhumerus -39.0267 9.6515 10.5002
lradius 28.1186
lwrist 16.332
lhand -22.9597 -35.1716
lfingers 7.12502
lthumb 3.48201 -5.22027
rfemur -101.922 0.519784 27.5661
rtibia 96.9028
rfoot 48.4702 0.483965
rtoes -4.63053
lfemur -28.527 3.00875 -22.3029
ltibia 41.4587
lfoot -17.4179 10.9501
ltoes 14.534
482
root 5.05335 16.9968 2.05363 7.83199 -12.7928 -7.70227
lowerback 21.0339 -0.184569 3.39756
upperback 5.32115 0.537598 1.6157
thorax -5.94144 0.205314 -0.332592
lowerneck -15.9939 -0.684272 -1.45346
upperneck 39.5307 -0.158905 -1.44703
head 17.1082 -0.562391 -0.44463
rclavicle 2.5842e-014 -1.39149e-014
rhumerus -39.5602 -8.43183 -17.6453
rradius 35.1417
rwrist 0.052932
rhand -14.6617 -45.4857
rfingers 7.12502
rthumb 11.491 -75.1508
lclavicle 2.5842e-014 -1.39149e-014
lhumerus -38.5143 9.37695 10.6103
lradius 27.75
lwrist 16.9409
lhand -23.7779 -33.5426
lfingers 7.12502
lthumb 2.6919 -3.57983
rfemur -101.989 0.666971 27.3947
rtibia 96.9699
rfoot 48.4676 0.156486
rtoes -4.07588
lfemur -28.5297 3.07825 -22.4679
ltibia 41.4984
lfoot -17.3578 11.1827
ltoes 14.6201
483
root 5.05644 16.9932 2.05047 7.83736 -12.9085 -7.60344
lowerback 21.0776 -0.16169 3.32469
upperback 5.30508 0.553508 1.60398
thorax -5.982 0.212951 -0.307881
lowerneck -16.047 -0.662493 -1.40367
upperneck 39.5982 -0.0831898 -1.59084
head 17.1596 -0.545158 -0.505806
rclavicle -1.55052e-014 2.38542e-015
rhumerus -39.3666 -8.53414 -17.6566
rradius 35.1785
rwrist 0.126012
rhand -14.8273 -45.1196
rfingers 7.12502
rthumb 11.3313 -74.7935
lclavicle -1.55052e-014 2.38542e-015
lhumerus -38.9334 9.82219 10.4833
lradius 28.0451
lwrist 16.8609
lhand -23.53 -31.6718
lfingers 7.12502
lthumb 2.93125 -1.71221
rfemur -102.073 0.736507 27.2445
rtibia 97.0005
rfoot 48.5707 -0.406518
rtoes -3.02605
lfemur -28.5696 3.0584 -22.6081
ltibia 41.527
lfoot -17.2619 11.3851
ltoes 14.545
484
root 5.05902 16.993 2.04164 7.86824 -12.9229 -7.63854
lowerback 21.2066 -0.183313 3.39921
upperback 5.26473 0.549406 1.61458
thorax -6.0923 0.208303 -0.337911
lowerneck -16.1055 -0.620394 -1.12238
upperneck 39.6433 0.0412411 -1.97703
head 17.2004 -0.507041 -0.709032
rclavicle -3.12092e-014 -1.19271e-015
rhumerus -39.1925 -8.5759 -17.6907
rradius 35.0951
rwrist 0.212601
rhand -15.2955 -44.4891
rfingers 7.12502
rthumb 10.8798 -74.1872
lclavicle -3.12092e-014 -1.19271e-015
lhumerus -39.0432 9.99893 10.4657
lradius 27.9588
lwrist 16.4709
lhand -22.8783 -28.3267
lfingers 7.12502
lthumb 3.56065 1.62333
rfemur -102.108 0.76768 27.2528
rtibia 96.9513
rfoot 48.6192 -0.693633
rtoes -2.12487
lfemur -28.637 2.97645 -22.5755
ltibia 41.5506
lfoot -17.2272 11.5405
ltoes 14.3535
485
root 5.06045 16.9986 2.03707 7.89375 -12.9751 -7.7329
lowerback 21.2097 -0.185474 3.51828
upperback 5.26199 0.573211 1.63405
thorax -6.09479 0.218353 -0.390754
lowerneck -16.0657 -0.584891 -0.892459
upperneck 39.5769 0.130464 -2.26487
head 17.1544 -0.475891 -0.862202
rclavicle -4.96962e-015 -3.18055e-015
rhumerus -39.0391 -8.58017 -17.7302
rradius 34.8909
rwrist 0.274961
rhand -15.9292 -43.7914
rfingers 7.12502
rthumb 10.2684 -73.5207
lclavicle -4.96962e-015 -3.18055e-015
lhumerus -39.0692 9.85256 10.5657
lradius 27.8449
lwrist 16.4099
lhand -22.2122 -27.6843
lfingers 7.12502
lthumb 4.20382 2.25393
rfemur -102.084 0.832386 27.3357
rtibia 96.8781
rfoot 48.5882 -0.557327
rtoes -2.02141
lfemur -28.6629 2.95421 -22.4679
ltibia 41.5528
lfoot -17.3017 11.6265
ltoes 14.2132
486
root 5.06115 17.0019 2.03961 7.89587 -13.0917 -7.8247
lowerback 21.1252 -0.151933 3.63837
upperback 5.24229 0.640904 1.66635
thorax -6.06863 0.250045 -0.441441
lowerneck -15.7954 -0.612473 -0.994688
upperneck 39.486 0.100608 -2.22485
head 17.0347 -0.496311 -0.827047
rclavicle -2.0276e-014 2.38542e-015
rhumerus -39.0397 -8.37053 -17.7879
rradius 34.9286
rwrist 0.229099
rhand -16.2187 -43.6107
rfingers 7.12502
rthumb 9.9892 -73.3536
lclavicle -2.0276e-014 2.38542e-015
lhumerus -39.1288 9.65005 10.6766
lradius 27.8268
lwrist 16.6343
lhand -22.0342 -31.3247
lfingers 7.12502
lthumb 4.37574 -1.38987
rfemur -102.008 0.953929 27.4012
rtibia 96.7997
rfoot 48.6375 -0.652086
rtoes -2.35057
lfemur -28.6254 2.98085 -22.369
ltibia 41.5255
lfoot -17.325 11.7014
ltoes 14.2268
487
root 5.06357 17.0024 2.04378 7.85771 -13.204 -7.81454
lowerback 21.1043 -0.132118 3.68794
upperback 5.20762 0.677654 1.67033
thorax -6.09349 0.266645 -0.474701
lowerneck -15.5363 -0.639973 -1.26282
upperneck 39.4644 0.050852 -1.99563
head 16.9566 -0.524216 -0.68252
rclavicle -1.0138e-014 -1.03368e-014
rhumerus -39.0862 -8.03623 -17.8701
rradius 35.1581
rwrist 0.150738
rhand -16.1838 -44.1034
rfingers 7.12502
rthumb 10.0228 -73.8447
lclavicle -1.0138e-014 -1.03368e-014
lhumerus -39.1667 9.54677 10.7358
lradius 27.5914
lwrist 16.4364
lhand -22.5884 -34.4391
lfingers 7.12502
lthumb 3.84058 -4.49401
rfemur -101.962 1.01693 27.3578
rtibia 96.8007
rfoot 48.6481 -1.20377
rtoes -2.05179
lfemur -28.527 2.96749 -22.3968
ltibia 41.4712
lfoot -17.2807 11.8414
ltoes 14.4123
488
root 5.06686 17.0015 2.04614 7.76489 -13.2539 -7.72642
lowerback 21.1675 -0.148017 3.68136
upperback 5.21135 0.656785 1.64757
thorax -6.12289 0.256051 -0.490306
lowerneck -15.4044 -0.619245 -1.36865
upperneck 39.3731 0.0833775 -1.91999
head 16.8737 -0.515367 -0.620997
rclavicle -4.37326e-015 8.34896e-015
rhumerus -39.064 -7.83602 -17.9807
rradius 35.4037
rwrist 0.0378991
rhand -15.8091 -44.8115
rfingers 7.12502
rthumb 10.3843 -74.5351
lclavicle -4.37326e-015 8.34896e-015
lhumerus -39.1801 9.48138 10.7727
lradius 27.3898
lwrist 16.081
lhand -23.8033 -32.9478
lfingers 7.12502
lthumb 2.66729 -2.98476
rfemur -101.929 0.97563 27.2397
rtibia 96.8912
rfoot 48.6334 -1.67201
rtoes -0.974891
lfemur -28.3808 2.91003 -22.5099
ltibia 41.4231
lfoot -17.2133 11.9875
ltoes 14.6951
489
root 5.0691 16.9975 2.04719 7.69518 -13.3368 -7.583
lowerback 21.2401 -0.12293 3.59027
upperback 5.20802 0.671529 1.62042
thorax -6.16492 0.263383 -0.471811
lowerneck -15.2731 -0.62618 -1.31295
upperneck 39.2471 0.120033 -2.09433
head 16.7729 -0.514605 -0.698814
rclavicle 8.15017e-015 2.50469e-014
rhumerus -39.0329 -7.75402 -18.0831
rradius 35.5459
rwrist -0.188966
rhand -15.6455 -45.1547
rfingers 7.12502
rthumb 10.5421 -74.8704
lclavicle 8.15017e-015 2.50469e-014
lhumerus -39.1814 9.41816 10.8576
lradius 27.3057
lwrist 15.7766
lhand -24.6078 -30.4451
lfingers 7.12502
lthumb 1.8904 -0.473686
rfemur -101.957 0.975722 27.0667
rtibia 96.959
rfoot 48.6587 -1.22177
rtoes -1.07185
lfemur -28.3068 2.87398 -22.6816
ltibia 41.3905
lfoot -17.1621 12.1261
ltoes 14.7001
490
root 5.07047 16.9921 2.04837 7.6941 -13.4663 -7.40337
lowerback 21.2497 -0.0697064 3.43118
upperback 5.19642 0.703948 1.57236
thorax -6.18332 0.280414 -0.441601
lowerneck -15.1964 -0.659167 -1.28585
upperneck 39.1636 0.0972975 -2.19219
head 16.7085 -0.532292 -0.749114
rclavicle 1.64991e-014 -4.37326e-015
rhumerus -39.0642 -7.72178 -18.1787
rradius 35.7304
rwrist -0.473325
rhand -15.7461 -44.8852
rfingers 7.12502
rthumb 10.4451 -74.6057
lclavicle 1.64991e-014 -4.37326e-015
lhumerus -39.1777 9.47394 10.891
lradius 27.2288
lwrist 15.4247
lhand -24.7492 -29.7083
lfingers 7.12502
lthumb 1.75377 0.264259
rfemur -102.105 1.03502 26.8601
rtibia 97.0159
rfoot 48.595 -0.396261
rtoes -2.58756
lfemur -28.3384 2.85553 -22.8932
ltibia 41.3603
lfoot -17.1696 12.28
ltoes 14.1661
